/* XPM */
static char *_2c04e63d9964c88e819741a8d87f5d23OmsQn7H9sFRQIR5[] = {
/* columns rows colors chars-per-pixel */
"32 32 61 1 ",
"  c None",
". c #161616",
"X c #1F1E1E",
"o c gray12",
"O c #2C1D1F",
"+ c #3A181D",
"@ c #331E21",
"# c #391C20",
"$ c #3A1C20",
"% c #3D1D23",
"& c #202020",
"* c #202120",
"= c #222323",
"- c #252021",
"; c #232625",
": c gray14",
"> c #252525",
", c #272525",
"< c #242626",
"1 c gray15",
"2 c #272626",
"3 c #272727",
"4 c #282828",
"5 c gray16",
"6 c #2A2828",
"7 c #2A2B2B",
"8 c gray17",
"9 c #2E2D2D",
"0 c gray18",
"q c #2F2F2F",
"w c #342427",
"e c #33282A",
"r c #33292A",
"t c #36282A",
"y c #392B2D",
"u c #3A2C2E",
"i c #322F30",
"p c gray19",
"a c #333434",
"s c #343434",
"d c #3B3939",
"f c gray23",
"g c #3B3E3D",
"h c gray24",
"j c #3F3F3F",
"k c #6C111D",
"l c #4A1B24",
"z c #4D1F27",
"x c #4E1F26",
"c c #661724",
"v c #681725",
"b c #701221",
"n c #55272F",
"m c #472E32",
"M c #462F32",
"N c #472F32",
"B c #414040",
"V c #404141",
"C c #911027",
"Z c #9D112A",
"A c #A9122D",
/* pixels */
"                                ",
"                                ",
"                                ",
"                                ",
"                                ",
"                                ",
"                                ",
"                                ",
"                                ",
"                =>>>%C          ",
"               >66>;lAZ         ",
"        vi    >6>X              ",
"        nhhs w6@O=              ",
"         hVg+zs>-X              ",
"         sVm$000p6>et           ",
"        .=ykmapssffcbu          ",
"        .=ykmapssffcbu          ",
"         sVm$000p6>et           ",
"         hVg+zs>-X              ",
"        nhhs w6@O=              ",
"        vi    >6>X              ",
"               >66>;lAZ         ",
"                =>>>%C          ",
"                                ",
"                                ",
"                                ",
"                                ",
"                                ",
"                                ",
"                                ",
"                                ",
"                                "
};
