/* XPM */
static char *_b719bd3337c4d80e1ec4ccaec5fc1d2hCNyPqRP76gisHa6[] = {
/* columns rows colors chars-per-pixel */
"32 32 200 2 ",
"   c black",
".  c #000005",
"X  c #000100",
"o  c #0D0300",
"O  c #080400",
"+  c #000200",
"@  c #0C0008",
"#  c #010005",
"$  c #030C09",
"%  c #040A08",
"&  c #0E0008",
"*  c #070400",
"=  c #0C0300",
"-  c #030002",
";  c #180606",
":  c #B10F38",
">  c #120B03",
",  c #070000",
"<  c #0B0005",
"1  c #000300",
"2  c #0F1910",
"3  c #101A11",
"4  c #0C0006",
"5  c #080000",
"6  c #140D05",
"7  c #B3113A",
"8  c #190705",
"9  c #030000",
"0  c #060200",
"q  c #6C0520",
"w  c #C40E3F",
"e  c #000500",
"r  c #000400",
"t  c #130806",
"y  c #3A2C23",
"u  c #362921",
"i  c #0F0503",
"p  c #C30D3E",
"a  c #6B051D",
"s  c #040000",
"d  c #402025",
"f  c #471822",
"g  c #030504",
"h  c #212119",
"j  c #840C27",
"k  c #810B25",
"l  c #1F2018",
"z  c #040605",
"x  c #481921",
"c  c #421F25",
"v  c #05291B",
"b  c #1B2723",
"n  c #000405",
"m  c #0E0002",
"M  c #010000",
"N  c #1E2921",
"B  c #7B142F",
"V  c #78142C",
"C  c #1C2920",
"Z  c #0D0002",
"A  c #010506",
"S  c #1C2824",
"D  c #070001",
"F  c #2C2328",
"G  c #2C2A2D",
"H  c #080004",
"J  c #010204",
"K  c #000802",
"L  c #282224",
"P  c #414340",
"I  c #3D423E",
"U  c #252120",
"Y  c #000600",
"T  c #000103",
"R  c #2B292E",
"E  c #2B2227",
"W  c #070002",
"Q  c #0A0002",
"!  c #252527",
"~  c #2E2E30",
"^  c #190D11",
"/  c #191F1B",
"(  c #12110F",
")  c #252928",
"_  c #3E3C41",
"`  c #403E41",
"'  c #272B2A",
"]  c #141311",
"[  c #1A201C",
"{  c #1A0E12",
"}  c #2F2F31",
"|  c #26272B",
" . c #000503",
".. c #090F0D",
"X. c #372E31",
"o. c #1F3026",
"O. c #2A1A1A",
"+. c #2F191B",
"@. c #273631",
"#. c #353239",
"$. c #383339",
"%. c #31181B",
"&. c #291919",
"*. c #1E2F25",
"=. c #342E30",
"-. c #060F0E",
";. c #000605",
":. c #010002",
">. c #040001",
",. c #1F2921",
"<. c #34312C",
"1. c #342021",
"2. c #192A22",
"3. c #37282D",
"4. c #322D33",
"5. c #332E34",
"6. c #36272C",
"7. c #1A2B23",
"8. c #311D1E",
"9. c #1D271F",
"0. c #050102",
"q. c #0B0706",
"w. c #322225",
"e. c #2B2C27",
"r. c #313C36",
"t. c #27302B",
"y. c #2E3935",
"u. c #252E29",
"i. c #323D37",
"p. c #2A2B26",
"a. c #342427",
"s. c #090504",
"d. c #000703",
"f. c #000C08",
"g. c #38252B",
"h. c #641A31",
"j. c #2B302A",
"k. c #29342C",
"l. c #28332B",
"z. c #2A2F29",
"x. c #661C33",
"c. c #37242A",
"v. c #020E0A",
"b. c #000602",
"n. c #000501",
"m. c #020001",
"M. c #000002",
"N. c #0F0002",
"B. c #12070D",
"V. c #1E030A",
"C. c #370E16",
"Z. c #4A3C39",
"A. c #360D15",
"S. c #20050C",
"D. c #11060C",
"F. c #000905",
"G. c #060004",
"H. c #252B2B",
"J. c #373D39",
"K. c #493335",
"L. c #700320",
"P. c #710421",
"I. c #483234",
"U. c #383E3A",
"Y. c #232929",
"T. c #050003",
"R. c #000A06",
"E. c #0E0001",
"W. c #030706",
"Q. c #464445",
"!. c #414A45",
"~. c #514746",
"^. c #31302C",
"/. c #33322E",
"(. c #424B46",
"). c #444243",
"_. c #040807",
"`. c #060000",
"'. c #020202",
"]. c #16211B",
"[. c #474843",
"{. c #4D4948",
"}. c #2E3430",
"|. c #2B1A20",
" X c #2C1B21",
".X c #2D332F",
"XX c #4E4A49",
"oX c #464742",
"OX c #18231D",
"+X c #040404",
"@X c #000302",
"#X c #5F0A21",
"$X c #682A39",
"%X c #0B1811",
"&X c #17151A",
"*X c #0D1A13",
"=X c #672938",
"-X c #620D24",
";X c #030102",
":X c white",
/* pixels */
"                                                                ",
"                                                                ",
"                                                                ",
"                                                                ",
"                                                                ",
"                                                                ",
"                                                                ",
"                                                                ",
"                . X o O + @ # $ % # & + * = X .                 ",
"                - ; : > , < 1 2 3 1 4 5 6 7 8 9                 ",
"                0 q w 9 e r t y u i r r 9 p a s                 ",
"                e d f + g   h j k l   z + x c r                 ",
"                e v b n m M N B V C M Z A S v e                 ",
"                D F G H J K L P I U Y T H R E W                 ",
"                Q ! ~ ^ / ( ) _ ` ' ] [ { } | Q                 ",
"                 ...X.o.O.+.@.#.$.@.%.&.*.=.-.;.                ",
"                :.>.,.<.1.2.3.4.5.6.7.8.<.9.0.:.                ",
"                >.  q.w.e.r.t.y.y.u.i.p.a.s.  9                 ",
"                X r d.f.g.h.j.k.l.z.x.c.v.b.n.X                 ",
"                X m.M.N.B.V.C.Z.Z.A.S.D.N.M.m.X                 ",
"                  F.G.b.H.J.K.L.P.I.U.Y.b.T.R.                  ",
"                E.r D W.Q.!.~.^./.~.(.)._.`.r N.                ",
"                , '.9 ].[.{.}.|. X.XXXoXOX9 +X,                 ",
"                @X+ e #X$X%Xe &X&Xe *X=X-Xe + @X                ",
"                    m.;X;Xm.        m.;X;Xm.                    ",
"                    m.m.m.m.        m.m.m.m.                    ",
"                    M m.m.M         M m.m.M                     ",
"                                                                ",
"                                                                ",
"                    X X X X         X X X X                     ",
"                    X X X X         X X X X                     ",
"                    X X X X         X X X X                     "
};
