/* XPM */
static char *_aee226808bb4d22f3c36aa8d1fac761EXP1rYfjlirYMKQP[] = {
/* columns rows colors chars-per-pixel */
"32 32 208 2 ",
"   c #000001",
".  c #090504",
"X  c #03060A",
"o  c #06080D",
"O  c #090A0F",
"+  c #020517",
"@  c #060B12",
"#  c #090C13",
"$  c #0B0E19",
"%  c #0C121C",
"&  c #10151D",
"*  c #0F1722",
"=  c #0F1927",
"-  c #07192B",
";  c #111723",
":  c #131C2A",
">  c #0D1E35",
",  c #131D32",
"<  c #0C253C",
"1  c #152334",
"2  c #1A2434",
"3  c #14253C",
"4  c #192539",
"5  c #162839",
"6  c #1C2B3C",
"7  c #223639",
"8  c #2F4238",
"9  c #35463D",
"0  c #0F2845",
"q  c #142C43",
"w  c #1A2B44",
"e  c #172F49",
"r  c #1D2F4B",
"t  c #0E3344",
"y  c #1B3246",
"u  c #163448",
"i  c #1C344B",
"p  c #1D3A4D",
"a  c #1F3855",
"s  c #202D46",
"d  c #212F4A",
"f  c #223345",
"g  c #263C42",
"h  c #23344D",
"j  c #233B4D",
"k  c #223653",
"l  c #263755",
"z  c #233B53",
"x  c #2A3B53",
"c  c #233D5A",
"v  c #2A3E5A",
"b  c #2E4645",
"n  c #354846",
"m  c #354D4C",
"M  c #3E544A",
"N  c #2B4355",
"B  c #284755",
"V  c #26415C",
"C  c #2A445B",
"Z  c #2C4B5C",
"A  c #32435E",
"S  c #344C5E",
"D  c #2E4363",
"F  c #2A4967",
"G  c #2B4D64",
"H  c #334461",
"J  c #354A65",
"K  c #354768",
"L  c #334C6B",
"P  c #3B4B69",
"I  c #2F5366",
"U  c #345363",
"Y  c #3B5966",
"T  c #34536D",
"R  c #3A516D",
"E  c #2D4E70",
"W  c #3B4D72",
"Q  c #355371",
"!  c #3B5372",
"~  c #395B75",
"^  c #3C557A",
"/  c #3C6274",
"(  c #3A6079",
")  c #455749",
"_  c #445959",
"`  c #4C604E",
"'  c #566749",
"]  c #466759",
"[  c #5C735A",
"{  c #5A795E",
"}  c #647B5A",
"|  c #435C68",
" . c #435A77",
".. c #43557B",
"X. c #425A79",
"o. c #486667",
"O. c #4C666C",
"+. c #546C61",
"@. c #567268",
"#. c #4C6C77",
"$. c #44647D",
"%. c #466A7A",
"&. c #566F76",
"*. c #4D787E",
"=. c #587773",
"-. c #718959",
";. c #5E807A",
":. c #65836A",
">. c #788B60",
",. c #7A9268",
"<. c #718F7C",
"1. c #74927B",
"2. c #A0AD3F",
"3. c #A7B53D",
"4. c #97A64C",
"5. c #9BAC4B",
"6. c #95A450",
"7. c #9EA953",
"8. c #AFBC54",
"9. c #859C69",
"0. c #819D79",
"q. c #8DA86E",
"w. c #93A562",
"e. c #99AC63",
"r. c #93A968",
"t. c #94A86A",
"y. c #8EA57B",
"u. c #92AB78",
"i. c #9EB176",
"p. c #A1AE69",
"a. c #A9BA6E",
"s. c #AFBD78",
"d. c #B1BF71",
"f. c #B7C053",
"g. c #CBD65F",
"h. c #D1DB5F",
"j. c #D3DC68",
"k. c #C7CF73",
"l. c #D5DE7B",
"z. c #435E81",
"x. c #485886",
"c. c #416383",
"v. c #496584",
"b. c #4C648C",
"n. c #476C89",
"m. c #4B6C8C",
"M. c #55688C",
"N. c #4D7783",
"B. c #4B718D",
"V. c #537B83",
"C. c #5A7D84",
"Z. c #56748D",
"A. c #4D6790",
"S. c #4D6C96",
"D. c #546490",
"F. c #506D92",
"G. c #596992",
"H. c #556E9B",
"J. c #596B9C",
"K. c #4F7492",
"L. c #4D759B",
"P. c #517194",
"I. c #537B95",
"U. c #5B759A",
"Y. c #597A98",
"T. c #5B7B9B",
"R. c #627B86",
"E. c #617A9A",
"W. c #597AA4",
"Q. c #5E7DA9",
"!. c #637CA2",
"~. c #607DAE",
"^. c #5D8583",
"/. c #5B869F",
"(. c #688A87",
"). c #62858C",
"_. c #748F87",
"`. c #769586",
"'. c #638795",
"]. c #678E94",
"[. c #6A8D92",
"{. c #669794",
"}. c #6C9292",
"|. c #709A97",
" X c #5882A2",
".X c #5B82AC",
"XX c #5D82B0",
"oX c #6486AB",
"OX c #6886B2",
"+X c #638AB4",
"@X c #78A7A5",
"#X c #97AC82",
"$X c #94B395",
"%X c #A3BB87",
"&X c #A3BA92",
"*X c #87A6A5",
"=X c #A1C19E",
"-X c #B1CCAD",
";X c #D4DC87",
":X c #C9D6A3",
">X c #D2DCA1",
",X c #DCE3A3",
"<X c #E4E9AF",
"1X c #E5E9B2",
"2X c #F3F5BA",
"3X c #F5F7C8",
"4X c #F7F9D1",
"5X c #FBFBE6",
/* pixels */
"                        X X X X X X @ o                         ",
"                                          @ X                   ",
"                      1 x J  .b.P.m.v.! 6     #                 ",
"                @ 6 N L ! R Q T T R z.W.W.P.x   O               ",
"            o : f C C h w 0 i z z i y e C n.OXM.  .             ",
"          X 2 f h < e G ( $.U B j j C C z 3 J !.M.- X           ",
"        X : 6 5 i n. X/.I.V.N.%.Y p e j Z T p < E.T.  #         ",
"        % 1 1 R T. X$.I U V.).}.}.[.#.Z i Z ~ N q !.X.  @       ",
"      o : y m.oXn.a u *.{.{.;.=.=.(.}.|.O.u U / u ! OXw         ",
"    X % 3 L.oXU q U '.^.] ) } -.-.} ` ^.@X#.q %.T t E.v.  o     ",
"    # + z.+XT y Z ].R.8 ' ,.q.r.r.t.y.' }.@Xt U B.q $.T.+ #     ",
"    # 3 ~.F.i u V.C.7 { %Xs.5.5.5.6.e.#X:.*XY B B.C L Q.5 @     ",
"  X   ! ~.E u %.).g @.$X:X<X1Xl.j.f.4.i.0.*X&.i I.Q V +Xv   o   ",
"    > Q.S.i V '.O.7 `.&Xa.k.3X5X3Xj.3.e.$X*XO.q B.~ h XXL   @   ",
"X   x OX^ w ! T.p _ `.#Xp.2.h.2X5X4X;Xd.-X`.n x n.G D +Xv $ @   ",
"    J Q.F i v.T.t _ <.1.i.6.8.g.j.,X<X>X=X] n U B.a ~ .Xr = o   ",
"    ! H.V a K.T.< | _.[ u.w.6.7.7.5.a.%X:.m m Z.$.> n.L., : X   ",
"X   ^ A.k a B.I.6 N _.+.} u.t.w.w.r.9.} M b | Z.c h .X~ , = X   ",
"X   ! b.x k c.I.j i =.<.9 [ ,.9.9.>.[ ) b o.R.R < F.Q.w 4 %     ",
"    H b.x k T I.C y Z |.(.n n ) ) n b b o.[.$.3 L +XQ w 1 #     ",
"    f b.x d F I.S p p / ].(.@.o.o.o.&.C.).| h A W.c.w h : o     ",
"    : X.A 6 k S. .f z i G N.).}.}.[.).#.S h ..S.^ i z s %       ",
"      A J 1 s W H.P i z p p G I I Z p h R z.z.H r h x 4 X       ",
"      2 H f 4 x m.!.v c z z z z h N A R R H h k v H h @ X       ",
"    X # f x 2 6 z K.U.P z z z z x v v v i i K ..W l * X         ",
"      X % 6 f 4 4 y b.T.v.P h h w r l x A ..J.x.k % o           ",
"        X # 6 6 : , 6 c.U.Q.H.G.D.D.G.H.b...K w o X             ",
"          o % : : : : s D ^ H.J.J.J.b.! x 1 $ # X               ",
"          X X O # % ; * ; : , > 3 w > . O # @ X                 ",
"                X o o $ % $ # & % O o @ o X                     ",
"                X X X   X X o X                                 ",
"                    X X X                                       "
};
