/* XPM */
static char *_f94a963115940a5dd6044ba542731c6SHqYCQCTqNrbloUM[] = {
/* columns rows colors chars-per-pixel */
"32 32 9 1 ",
"  c None",
". c #29366F",
"X c #257179",
"o c #38B764",
"O c #A7F070",
"+ c #3B5DC9",
"@ c #41A6F6",
"# c #73EFF7",
"$ c #F4F4F4",
/* pixels */
"  $                          $  ",
"  $$                        $$  ",
"  $o$                      $X$  ",
"  $oo$   $$$        $$$   $XX$  ",
"  $Ooo$ $XXX$      $...$ $XXo$  ",
"  $OOoo$$$$$$$$  $$$$$$$$XXoo$  ",
"  $oOOooOOOOOO$$$$ooooooXXooX$  ",
"  $OoOOoooooo$ooXX$XXXXXXooXo$  ",
"  $OOOOOoooo$oooXXX$XXXXooooo$  ",
"  $OOOoOOOO$oooX.XXX$ooooXooo$  ",
"   $OOOoOO$oooXX..XXX$ooXooo$   ",
"    $OOOO$ooXoXX..X.XX$oooo$    ",
"     $OOO$ooXoXX..X.XX$ooo$     ",
"      $OO$ooooXX..XXXX$oo$      ",
"       $O$ooXoXX..X.XX$o$       ",
"        $$XoooXX..XXX.$$        ",
"         $XoooXX..XXX.$         ",
"         $XXooXX..XX..$         ",
"         $XXoo@X.+XX..$         ",
"          $XXo#@+@X..$          ",
"          $$Xo##@@X.$$          ",
"          $o$o##@@X$X$          ",
"          $OOo##@@Xoo$          ",
"          $oOo@#@+XoX$          ",
"          $OOoX@+.Xoo$          ",
"          $oOoXX..XoX$          ",
"          $OOoX$$.Xoo$          ",
"          $oOo$  $XoX$          ",
"           $Oo$  $Xo$           ",
"           $Oo$  $Xo$           ",
"            $$$  $$$            ",
"                                "
};
