/* XPM */
static char *_790acb75bb64647f91f55ec9e8025c7Psw3CeaUkZWihQ8U[] = {
/* columns rows colors chars-per-pixel */
"32 32 4 1 ",
"  c None",
". c #5F5F5F",
"X c #717171",
"o c gray49",
/* pixels */
"                                ",
"                                ",
"                                ",
"                                ",
"                      .         ",
"                    ..X.        ",
"                  ..XXX.        ",
"                ..XXXXXX.       ",
"             ...XXXXoXXX.       ",
"          ...XXooXXoooXXX.      ",
"        ..XXXXooXXXooXXXX.      ",
"        .XXXooooXooooXXXXX.     ",
"       .XXXooooXooooXXXXXX.     ",
"       .XXooooooooooXXXXXX.     ",
"      .XXXoooooooooXXXoXX..     ",
"      .XXoooooooooXXXooXX..     ",
"     .XXXooooXXoooXXXoXXX..     ",
"     .XXXoooXXXXXXXXoXXX.o.     ",
"     .XXXXXXXXXXXXXXXXXX.o.     ",
"      .XXXooXXXXXXXXXXX.oo.     ",
"      .XXooXXXoXXXXX....oo.     ",
"      .XXooXXooXXX.......o.     ",
"       .XXXXXooXXX.......o.     ",
"       .XXXXXXXXX..........     ",
"       .XXXXXXXX...........     ",
"        .XXXXX.............     ",
"        ...XX............       ",
"           ............         ",
"                ....            ",
"                                ",
"                                ",
"                                "
};
