/* XPM */
static char *_08978023844404bc01934aaa56fc3ef6jhfYbWU497fcVbH[] = {
/* columns rows colors chars-per-pixel */
"32 32 32 1 ",
"  c None",
". c #B3EDFE",
"X c #84E0FF",
"o c #3DC0FF",
"O c #75DAFE",
"+ c #A5E8FE",
"@ c #0FA4FF",
"# c #012A9D",
"$ c #93E3FE",
"% c #62D2FF",
"& c #CAF2FE",
"* c #DCF4FB",
"= c #0092FF",
"- c #0F9BFF",
"; c #117AFE",
": c #76BBFF",
"> c #21AFFE",
", c #81CDFF",
"< c #5AB9FF",
"1 c #57C8FF",
"2 c #5BA5FF",
"3 c #34B7FF",
"4 c #BBEBFE",
"5 c #0889FF",
"6 c #95DCF1",
"7 c #8FDEFF",
"8 c #0083FF",
"9 c #63B1FF",
"0 c #8FD8FF",
"q c #91CCFD",
"w c #B9E4FF",
"e c #ADD7FF",
/* pixels */
"                                ",
"                                ",
"                                ",
"           ##########           ",
"        ###**********###        ",
"       #******&&&&&&&&&&#       ",
"      #*&&&&&&......4.4..#      ",
"     #......++++++++++....#     ",
"    #4++$$$$$$$$$+++++++$77#    ",
"   #.4$OOOXXX$$$$$7XXOO%%%,%#   ",
"  #6++.OOOXXOOO%%%%%11ooo,3%O#  ",
" #6$$$$4%%%%111ooooooo33,@<%%O# ",
" #XXXXX$*&w0,oooo33<,,,::>3%%%# ",
" #$XXXO++.&&&&4weqq<@@-8:>o%%%# ",
" #.$XOO.$$+..+++:@@@@-55-oo%%X# ",
" #*.XO$$$$$$$$$$:@@@@====<o%O6# ",
"  #*+X+$$XXOX$$$:@@@=====@o%6#  ",
"   #*.XXO%OOOX$$:@@-====--<6#   ",
"    #&+O%%OO%OX$:@-------@<#    ",
"     #,:,07$OOOXq@@-9:9222#     ",
"      #>@@><,,0+e9:28;;;5#      ",
"       #>>3o3>@>2;;;;;;=#       ",
"        #>oooo>>2;;;;8-#        ",
"         #o1%1o328555@#         ",
"          #%%%1o2===@#          ",
"           #%%%12--@#           ",
"            #OO%9@@#            ",
"             #O%<@#             ",
"              #O<#              ",
"               ##               ",
"                                ",
"                                "
};
